# xmcd CD database file
#
# Track frame offsets:
#	150
#	17252
#	29778
#	44308
#	57033
#	78399
#	93038
#	106307
#	119406
#	132455
#	152196
#	163956
#	180473
#	196834
#	213459
#	227350
#	247801
#	263640
#	277535
#	298976
#
# Disc length: 4189 seconds
#
# Revision: 1
# Processed by: cddbd v1.5.2PL0 Copyright (c) Steve Scherf et al.
# Submitted via: CDValet v3.40 - Copyright (c) 1996 - 1998 Greg Leichner
#
DISCID=08105b14
DTITLE=Edwards, Jonathan - Rollin' Along - Live In Holland
DYEAR=1900
DGENRE=
TTITLE0=Red Light, Green Light
TTITLE1=That's What Our Life Is
TTITLE2=Carolina, Caroline
TTITLE3=Have Yourself A Good Time For Me
TTITLE4=Seven Daffodils
TTITLE5=Rollin' Along
TTITLE6=If I Were A Carpenter
TTITLE7=Athens County
TTITLE8=Four Strong Winds
TTITLE9=Morning Train
TTITLE10=Choices
TTITLE11=Everybody Knows Her
TTITLE12=Hearts Overflowing
TTITLE13=Early Morning Rain
TTITLE14=Honky Tonk Stardust Cowboy
TTITLE15=Rockin' Chair
TTITLE16=One More Trip Around The Sun
TTITLE17=This Island Earth
TTITLE18=People Get Ready - Train Of Glory
TTITLE19=Angelina
EXTD=
EXTT0=
EXTT1=
EXTT2=
EXTT3=
EXTT4=
EXTT5=
EXTT6=
EXTT7=
EXTT8=
EXTT9=
EXTT10=
EXTT11=
EXTT12=
EXTT13=
EXTT14=
EXTT15=
EXTT16=
EXTT17=
EXTT18=
EXTT19=
PLAYORDER=
